# xmcd CD database file
#
# Track frame offsets:
#	150
#	6743
#	28445
#	55488
#	72987
#	95085
#	113503
#	138609
#	153898
#	165842
#	184148
#	203505
#	228125
#
# Disc length: 3342 seconds
#
# Revision: 4
# Processed by: cddbd v1.5PL3 Copyright (c) Steve Scherf et al.
# Submitted via: CDex 1.50
#
DISCID=ae0d0c0d
DTITLE=Campanella - /Campanella
DYEAR=2003
DGENRE=New Age
TTITLE0=intro
TTITLE1=少年の夢
TTITLE2=14
TTITLE3=行進の歩き方
TTITLE4=ゆりかご
TTITLE5=8時45分には駅に
TTITLE6=realism calls
TTITLE7=electron loves flowers
TTITLE8=splash down
TTITLE9=all of us
TTITLE10=2001年10月、徹夜焼肉の帰りに見上げた秋空より降ってきたメロディ。
TTITLE11=split mind requiem
TTITLE12=all of us (/campanella)
EXTD=YEAR: 2003
EXTT0=
EXTT1=
EXTT2=
EXTT3=
EXTT4=
EXTT5=
EXTT6=
EXTT7=
EXTT8=
EXTT9=
EXTT10=
EXTT11=
EXTT12=
PLAYORDER=
